<svg 
  xmlns="http://www.w3.org/2000/svg" viewBox="0 0 68.16 61.68">
  <defs>
    <style>.cls-1{fill-rule:evenodd;}</style>
  </defs>
  <title>Королева</title>
  <g id="Слой_2" data-name="Слой 2">
    <g id="Слой_1-2" data-name="Слой 1">
      <path class="cls-1" d="M64.8,16.56a3.36,3.36,0,1,1,3.36-3.36,3.35,3.35,0,0,1-3.36,3.36Zm-13.92-7a3.36,3.36,0,1,1,3.36-3.36A3.35,3.35,0,0,1,50.88,9.6ZM50.64,35l13.2-18.48L57.34,37.9c-5-1.87-13.48-3.1-23.16-3.1-9.52,0-17.93,1.19-22.92,3l-6.7-21L18,34.8l.48-25.2L28.8,33.12,34.32,7,39.6,33.12,50.16,9.6,50.64,35ZM34.08,6.72a3.36,3.36,0,1,1,3.36-3.36,3.35,3.35,0,0,1-3.36,3.36ZM17.28,9.6a3.36,3.36,0,1,1,3.36-3.36A3.35,3.35,0,0,1,17.28,9.6Zm-13.92,7A3.36,3.36,0,1,1,6.72,13.2a3.35,3.35,0,0,1-3.36,3.36ZM34.08,37c11.27,0,20.4,2.31,20.4,5.16a1.49,1.49,0,0,1,0,.36H13.73a1.49,1.49,0,0,1-.05-.36c0-2.85,9.13-5.16,20.4-5.16Zm-17,8.4H50.88V53H17V45.36ZM34,54.72c9.74,0,17.64,1.56,17.64,3.48S43.7,61.68,34,61.68,16.32,60.12,16.32,58.2s7.9-3.48,17.64-3.48Z"/>
    </g>
  </g>
</svg>